<svg xmlns="http://www.w3.org/2000/svg" width="165.54971pt" height="150pt" viewBox="0 0 165.54971 149.99999"><path fill="#262f76" d="M.004 40.377h13.454V13.454h26.908V0H.004ZM165.538.002h-40.362v13.454h26.915V40.38l13.447 14.078zM13.454 109.615H0V150h40.362v-13.454H13.454Z" style="stroke-width:7.60974"/><path fill="#262f76" d="M88.92 132.31c-3.881-.44-7.39 2.337-7.83 6.21-.1.578-.93 5.198-4.186 10.182-.282.449-.624.867-.928 1.294H92.23c2.344-5.335 2.846-9.33 2.9-9.81.463-3.896-2.314-7.404-6.21-7.875m76.356-87.39c-14.946-13.25-34.761-21.795-55.391-21.825-13.865 0-28.103 3.957-40.872 12.997C45.17 52.736 37.562 76.35 37.752 99.391c0 7.054.654 14.162 1.651 21.208.548 3.866 4.132 6.552 8.028 6.012 3.866-.556 6.552-4.155 6.005-8.02-.936-6.56-1.515-12.99-1.515-19.2.19-20.455 5.586-37.676 25.265-51.739 10.326-7.275 21.474-10.38 32.699-10.395 16.642-.022 33.444 7.093 45.985 18.24 3.135 2.778 6.392 5.518 9.68 8.212V45.156c-.092-.083-.198-.167-.274-.236m-24.017 43.855c-6.704-6.194-11.635-10.935-16.916-13.477-4.406-1.978-8.736-3.005-12.883-3.005-7.808-.092-14.596 3.98-18.477 9.595-3.98 5.632-5.715 12.534-5.73 19.656 0 3.775.51 7.61 1.507 11.4 3.021 10.691 11.422 24.153 23.187 37.052h19.99c-.631-.564-1.247-1.142-1.887-1.72-14.61-13.591-25.5-30.546-27.608-39a30.08 30.08 0 0 1-1.02-7.732c-.022-4.763 1.256-8.933 3.082-11.43 1.903-2.495 3.668-3.584 6.956-3.652 1.78 0 4.132.426 7.107 1.765 1.096.328 6.849 4.931 12.975 10.821 6.331 5.99 13.85 13.47 21.497 20.608 4.27 3.957 8.653 7.427 12.51 10.516v-18.301a91.628 91.628 0 0 1-2.876-2.58c-7.412-6.948-14.892-14.382-21.414-20.516m-64.545 7.732c.076-8.204 1.636-16.011 9.36-25.356 2.503-3.036 2.123-7.473-.875-9.999-2.991-2.511-7.466-2.1-9.962.898h-.008C65.23 73.86 62.476 86.165 62.56 96.507c.046 9.778 1.994 18.058 1.918 23.955-.023 3.805-.609 6.255-2.1 8.485-1.515 2.207-4.437 4.749-10.684 7.26-3.63 1.438-5.411 5.562-3.965 9.185a7.09 7.09 0 0 0 6.582 4.459c.875 0 1.758-.167 2.61-.51 7.884-3.12 13.576-7.176 17.153-12.434 3.6-5.266 4.566-11.148 4.55-16.445-.068-8.386-1.97-16.2-1.91-23.955M110.73 47.31c-3.957 0-8.036.533-12.153 1.697a7.058 7.058 0 0 0-4.908 8.736c1.058 3.744 4.954 5.935 8.713 4.893 2.922-.814 5.677-1.164 8.348-1.164 10.6-.061 21.094 5.89 31.557 14.595 7.892 6.522 15.517 14.322 23.263 21.254V78c-4.505-4.246-9.238-8.69-14.23-12.838-11.4-9.413-24.58-17.791-40.59-17.852m14.892 58.29c-2.405-3.059-6.856-3.599-9.953-1.194a7.07 7.07 0 0 0-1.203 9.938c3.295 4.216 12.564 15.288 23.598 25.622 3.79 3.546 7.785 6.97 11.871 10.03h15.615v-6.53c-.791-.449-1.582-.898-2.382-1.438-14.869-9.36-33.353-30.949-37.546-36.428" style="stroke-width:7.60974"/></svg>